<?xml version="1.0" encoding="iso-8859-1"?>
<!-- Generator: Adobe Illustrator 19.0.0, SVG Export Plug-In . SVG Version: 6.00 Build 0)  -->
<svg version="1.1" id="Capa_1" xmlns="http://www.w3.org/2000/svg" xmlns:xlink="http://www.w3.org/1999/xlink" x="0px" y="0px"
	 viewBox="0 0 497.448 497.448" style="enable-background:new 0 0 497.448 497.448;" xml:space="preserve">
<g>
	<g>
		<g>
			<path d="M481.448,416.724c0,35.288-32.304,64-72,64s-72-28.712-72-64c0-28,20.168-52.512,50.176-61l5.824-1.648v-41.352h16v32
				c0,13.232,10.768,24,24,24c2.808,0,5.496-0.488,8-1.368v17.368c0,13.232,10.768,24,24,24s24-10.768,24-24v-128
				c0-22.056-17.944-40-40-40c-6.536,0-12.992,1.672-18.784,4.816c-7.472-8.144-17.92-12.816-29.216-12.816
				c-22.056,0-40,17.944-40,40c0,5.696,1.232,11.088,3.392,16h-19.392v48h32v29.456c-33.736,11.904-56,41.192-56,74.544
				c0,44.112,39.48,80,88,80c48.52,0,88-35.888,88-80H481.448z M361.448,296.724v-16h16v-0.208c6.704,5.08,14.96,8.208,24,8.208v-16
				c-13.232,0-24-10.768-24-24s10.768-24,24-24c8.448,0,16.128,4.408,20.528,11.8l4.84,8.12l7.208-6.112
				c3.112-2.656,8.328-5.808,15.424-5.808c13.232,0,24,10.768,24,24v128c0,4.408-3.592,8-8,8c-4.408,0-8-3.592-8-8v-40v-32h-16v32
				c0,4.408-3.592,8-8,8c-4.408,0-8-3.592-8-8v-64h-16v16H361.448z"/>
			<path d="M382.232,393.324l-9.56-12.832c-12.224,9.112-19.224,22.32-19.224,36.232c0,13.92,7.008,27.12,19.224,36.232l9.56-12.832
				c-8.12-6.056-12.784-14.584-12.784-23.4C369.448,407.908,374.112,399.388,382.232,393.324z"/>
			<path d="M409.448,464.724v-16c-4.712,0-9.32-0.656-13.696-1.936l-4.504,15.352C397.088,463.852,403.216,464.724,409.448,464.724z
				"/>
			<rect x="393.448" y="240.724" width="16" height="16"/>
			<rect x="441.448" y="280.724" width="16" height="16"/>
			<path d="M116.984,216.276c4.08,14.04,11.616,26.912,22.24,37.536l31.2,31.2c7.552,7.552,17.592,11.712,28.28,11.712H236.2
				c10.68,0,20.728-4.16,28.28-11.712l31.2-31.2c10.624-10.624,18.16-23.504,22.24-37.536c19.928-2.256,35.528-19.024,35.528-39.552
				c0-13.128-6.448-24.704-16.248-32h0.248v-24c0-66.168-53.832-120-120-120s-120,53.832-120,120v24h0.248
				c-9.8,7.296-16.248,18.872-16.248,32C81.448,197.252,97.048,214.02,116.984,216.276z M284.36,242.5l-31.2,31.2
				c-4.464,4.464-10.648,7.024-16.968,7.024h-37.496c-6.32,0-12.496-2.56-16.968-7.024l-31.2-31.2
				c-7.52-7.52-13.088-16.44-16.64-26.136c1.176,0.176,2.344,0.36,3.56,0.36h47.44c8.04,0,15.504-4,19.968-10.688l6.824-10.224
				c2.568-3.864,8.968-3.872,11.552,0l6.816,10.216c4.456,6.696,11.92,10.696,19.96,10.696h47.44c1.216,0,2.384-0.184,3.552-0.36
				C297.448,226.06,291.88,234.98,284.36,242.5z M305.448,191.588c0,0.504-0.064,0.992-0.072,1.496
				c-0.2,4.232-3.648,7.64-7.928,7.64h-47.44c-2.68,0-5.168-1.336-6.656-3.56l-6.816-10.216c-4.256-6.4-11.4-10.224-19.088-10.224
				c-7.696,0-14.832,3.824-19.088,10.216l-6.816,10.216c-1.488,2.232-3.976,3.568-6.656,3.568h-47.44
				c-4.28,0-7.728-3.408-7.928-7.64c-0.008-0.504-0.072-0.992-0.072-1.496v-38.864h173.128h2.872V191.588z M228.76,136.724
				l10.656-10.656c7.488-7.48,21.152-6.512,27.504,1.96l6.528,8.696H228.76z M337.448,176.724c0,10.552-6.896,19.44-16.376,22.64
				c0.16-1.848,0.224-3.712,0.272-5.584c0.016-0.36,0.104-0.696,0.104-1.056h-0.056c0.008-0.384,0.056-0.752,0.056-1.136v-37.392
				C330.736,157.508,337.448,166.308,337.448,176.724z M113.448,120.724c0-57.344,46.656-104,104-104s104,46.656,104,104v16h-8
				h-10.872c-5.712,0-11.168-2.728-14.6-7.304l-8.248-11c-6.44-8.576-16.68-13.696-27.408-13.696
				c-9.152,0-17.752,3.56-24.216,10.032L211.48,131.38c-3.448,3.448-8.032,5.344-12.904,5.344h-85.128V120.724z M113.448,154.196
				v37.392c0,0.384,0.048,0.752,0.056,1.136h-0.056c0,0.36,0.088,0.696,0.104,1.056c0.048,1.872,0.112,3.736,0.272,5.584
				c-9.48-3.2-16.376-12.088-16.376-22.64C97.448,166.308,104.16,157.508,113.448,154.196z"/>
			<path d="M323.248,440.452l-23.232-30.976l30.296-30.296l-13.56-54.256l36.48,12.16l5.064-15.176l-68.848-22.952v-10.232h-16
				v11.568l-56,35l-56-35v-11.568h-16v10.232L76.616,321.9c-31,10.336-53.6,36.784-58.976,69.016L0,496.724h337.448v-16h-41.056
				L323.248,440.452z M90.296,480.724l7.12-71.2l-15.92-1.592l-7.28,72.8h-55.32l14.528-87.176
				c4.392-26.376,22.888-48.008,48.256-56.472l36.48-12.16L104.6,379.18l30.296,30.296l-23.232,30.976l26.84,40.272H90.296z
				 M251.312,480.724l29.968-142.352l-15.656-3.296L234.96,480.724h-35.016L169.28,335.076l-15.656,3.296l29.968,142.352h-25.856
				l-26.488-39.728l24.768-33.024l-33.704-33.704l13.84-55.344l16.248-5.416l65.048,40.648l65.048-40.656l16.256,5.416l13.84,55.344
				l-33.704,33.704l24.768,33.024l-26.488,39.736H251.312z"/>
		</g>
	</g>
</g>
<g>
</g>
<g>
</g>
<g>
</g>
<g>
</g>
<g>
</g>
<g>
</g>
<g>
</g>
<g>
</g>
<g>
</g>
<g>
</g>
<g>
</g>
<g>
</g>
<g>
</g>
<g>
</g>
<g>
</g>
</svg>
