<svg height="512" viewBox="0 0 512 512" width="512" xmlns="http://www.w3.org/2000/svg"><g id="Flat"><circle cx="160" cy="160" fill="#529ddf" r="136"/><circle cx="160" cy="160" fill="#d4e4f0" r="112"/><path d="m280 360-104-104-24 24 120 120z" fill="#4f5761"/><path d="m159.029 299.716h33.941v56.569h-33.941z" fill="#68737f" transform="matrix(.707 -.707 .707 .707 -180.382 220.52)"/><path d="m136 384h184v32h-184z" fill="#68737f"/><path d="m272 352h56v64h-56z" fill="#d4e4f0"/><path d="m216 384h112v32h-112z" fill="#4f5761"/><path d="m128 448h352v40h-352z" fill="#529ddf"/><path d="m488 320a111.99484 111.99484 0 0 1 -112 112c-2.68994 0-5.36-.08984-8-.29v-40.1499a72.973 72.973 0 0 0 8 .4399 72.01489 72.01489 0 0 0 16-142.22v-40.63986a112.00776 112.00776 0 0 1 96 110.85986z" fill="#d4e4f0"/><path d="m392 448h-80l1.33-16 6.67-80h64l6.67 80z" fill="#529ddf"/><circle cx="272" cy="376" fill="#68737f" r="16"/><path d="m416 256a22.91781 22.91781 0 0 1 -.33008 3.91016 71.57916 71.57916 0 0 0 -23.66992-10.13016v-17.78a24.03189 24.03189 0 0 1 24 24z" fill="#c1d7e6"/><path d="m424 128-20.49 34.14-3.51 5.86-20.16-5.6-27.84-7.73 32-50.67z" fill="#68737f"/><path d="m422.38 218.03-15.4 19.24-14.98 18.73-19.19-14.4-26.61-19.95 13.81-28.75 8.24-17.15 47.8 37.34z" fill="#68737f"/><path d="m403.51 162.14014-3.51 5.85986-20.15991-5.6001a32.01352 32.01352 0 0 1 23.66992-.25976z" fill="#4f5761"/><path d="m400 168-30.03 47.19-25.97 40.81-48-40 48-80 42.76 24.43z" fill="#529ddf"/><path d="m248 216-16 32 16 16 32-24z" fill="#68737f"/><path d="m296 248-32 32 24 24 40-32z" fill="#68737f"/><path d="m248 216h48l48 40v40z" fill="#4f5761"/><path d="m406.98 237.27-14.98 18.73-19.18994-14.3999a23.95724 23.95724 0 0 1 34.16994-4.3301z" fill="#4f5761"/><circle cx="392" cy="256" fill="#68737f" r="16"/><path d="m416.05005 213.08984a31.99 31.99 0 0 1 -56.04-20.18994l8.24-17.1499z" fill="#4f5761"/><path d="m400 168-30.03 47.18994a31.98631 31.98631 0 0 1 16.79-54.76z" fill="#4384c3"/><circle cx="392" cy="192" fill="#68737f" r="24"/><path d="m392 448h-80l1.33-16h77.34z" fill="#4384c3"/><g fill="#fdca77"><path d="m152 128h48v16h-48z"/><path d="m144 96h56v16h-56z"/><path d="m120 176h48v16h-48z"/><path d="m120 208h56v16h-56z"/></g><path d="m208 232h-16v-32a32.03635 32.03635 0 0 0 -32-32 48.054 48.054 0 0 1 -48-48v-40h16v40a32.03635 32.03635 0 0 0 32 32 48.054 48.054 0 0 1 48 48z" fill="#e04446"/><path d="m128 232h-16v-32a48.054 48.054 0 0 1 48-48 32.03635 32.03635 0 0 0 32-32v-40h16v40a48.054 48.054 0 0 1 -48 48 32.03635 32.03635 0 0 0 -32 32z" fill="#7ab355"/></g></svg>