<svg height="511pt" viewBox="-37 1 511 511.99875" width="511pt" xmlns="http://www.w3.org/2000/svg"><path d="m371.804688 381.304688c2.625 0 5.179687-1.035157 7.070312-2.929688 2.367188-2.363281 3.394531-5.753906 2.734375-9.03125-8.273437-41.390625-28.425781-79.039062-58.269531-108.886719l-82.847656-82.847656c-3.90625-3.902344-10.238282-3.902344-14.144532 0-3.90625 3.90625-3.90625 10.238281 0 14.144531l82.847656 82.847656c23.257813 23.257813 40.015626 51.742188 49.023438 83.117188-31.375-9.007812-59.859375-25.765625-83.117188-49.023438l-132.371093-132.371093 64.9375-64.941407c1.875-1.875 2.929687-4.417968 2.929687-7.070312s-1.054687-5.195312-2.929687-7.070312l-20.199219-20.199219c-10.257812-10.261719-24.851562-13.605469-37.945312-10.050781l-50.035157-50.03125c-22.613281-22.613282-59.410156-22.613282-82.027343 0-22.617188 22.613281-22.617188 59.414062 0 82.027343l50.53125 50.535157c-.671876 2.894531-1.027344 5.882812-1.027344 8.925781 0 10.445312 4.066406 20.261719 11.449218 27.648437l20.199219 20.199219c1.875 1.875 4.421875 2.929687 7.070313 2.929687 2.652344 0 5.195312-1.054687 7.074218-2.929687l15.828126-15.832031 132.375 132.375c29.84375 29.84375 67.496093 49.996094 108.882812 58.273437.652344.128907 1.308594.191407 1.960938.191407zm-340.199219-296.457032c-14.816407-14.816406-14.816407-38.925781 0-53.746094 14.816406-14.816406 38.925781-14.816406 53.742187 0l46.382813 46.386719-53.316407 53.316407c-.140624.144531-.273437.292968-.414062.4375zm74.082031 100.234375-13.128906-13.128906c-3.605469-3.605469-5.59375-8.402344-5.59375-13.503906 0-5.101563 1.988281-9.894531 5.59375-13.5l53.761718-53.765625c3.722657-3.722656 8.613282-5.582032 13.503907-5.582032s9.78125 1.859376 13.503906 5.582032l13.128906 13.128906zm0 0"/><path d="m393.582031 399.324219c-3.035156 0-5.90625 1.378906-7.804687 3.75-5.890625 7.355469-35.28125 45.105469-35.28125 65.835937 0 23.757813 19.328125 43.089844 43.085937 43.089844 23.761719 0 43.085938-19.332031 43.085938-43.089844 0-20.730468-29.386719-58.480468-35.277344-65.835937-1.898437-2.371094-4.769531-3.75-7.808594-3.75zm0 92.671875c-12.726562 0-23.085937-10.355469-23.085937-23.085938 0-7.503906 10.914062-26.289062 23.078125-43.058594 11.152343 15.425782 23.09375 34.953126 23.09375 43.058594 0 12.730469-10.355469 23.085938-23.085938 23.085938zm0 0"/><path d="m198.371094 149.019531c-1.867188 1.859375-2.929688 4.4375-2.929688 7.070313 0 2.628906 1.0625 5.210937 2.929688 7.070312 1.859375 1.871094 4.429687 2.929688 7.070312 2.929688 2.632813 0 5.203125-1.058594 7.070313-2.929688 1.859375-1.859375 2.929687-4.441406 2.929687-7.070312 0-2.632813-1.066406-5.210938-2.929687-7.070313-1.859375-1.859375-4.4375-2.929687-7.070313-2.929687-2.640625 0-5.207031 1.070312-7.070312 2.929687zm0 0"/></svg>